<svg width="96" height="96" viewBox="0 0 96 96" fill="none" xmlns="http://www.w3.org/2000/svg">
<rect width="96" height="96" rx="8" fill="#EAE6FD"/>
<path fill-rule="evenodd" clip-rule="evenodd" d="M57.9971 40.0001C60.2059 40.0001 61.9967 38.2091 61.9967 36C61.9967 33.791 60.2059 32 57.9971 32C55.7884 32 53.9976 33.791 53.9976 36C53.9976 38.2091 55.7884 40.0001 57.9971 40.0001ZM29.9998 64H66.0007C66.7136 64 67.3726 63.62 67.7305 63.004C68.0885 62.387 68.0905 61.626 67.7365 61.007L59.7324 47.0068C59.2055 46.0858 58.0506 45.7378 57.1027 46.2098L50.8835 49.3168L43.7873 35.1066C43.4433 34.4186 42.7314 34.0126 41.9675 33.9996C41.1986 34.0126 40.5046 34.4636 40.1827 35.1626L28.1841 61.162C27.8981 61.781 27.9481 62.503 28.315 63.078C28.683 63.652 29.3179 64 29.9998 64Z" fill="#9C80F4"/>
</svg>
