<svg width="147" height="28" viewBox="0 0 147 28" fill="none" xmlns="http://www.w3.org/2000/svg">
<path d="M29.9181 18.2973C29.9572 18.7116 29.7601 19.2337 29.131 19.8487C28.5075 20.4584 27.5374 21.0771 26.2587 21.6538C23.7079 22.8042 20.0753 23.7221 15.9709 24.1092C11.8666 24.4963 8.12643 24.2738 5.40548 23.6207C4.04147 23.2932 2.97284 22.8668 2.24629 22.3845C1.51336 21.8979 1.22207 21.4219 1.183 21.0076C1.14392 20.5933 1.34106 20.0712 1.97009 19.4561C2.59364 18.8465 3.5637 18.2278 4.84243 17.6511C7.39328 16.5007 11.0259 15.5828 15.1302 15.1957C19.2346 14.8086 22.9747 15.0311 25.6957 15.6842C27.0597 16.0116 28.1283 16.4381 28.8548 16.9204C29.5878 17.407 29.8791 17.883 29.9181 18.2973Z" stroke="#312E81" stroke-width="1.4"/>
<path d="M29.9181 13.142C29.9572 13.5563 29.7601 14.0784 29.131 14.6935C28.5075 15.3031 27.5374 15.9218 26.2587 16.4985C23.7079 17.6489 20.0753 18.5668 15.9709 18.9539C11.8666 19.341 8.12643 19.1185 5.40548 18.4654C4.04147 18.138 2.97284 17.7115 2.24629 17.2292C1.51336 16.7427 1.22207 16.2666 1.183 15.8523C1.14392 15.438 1.34106 14.9159 1.97009 14.3009C2.59364 13.6912 3.5637 13.0725 4.84243 12.4958C7.39328 11.3454 11.0259 10.4276 15.1302 10.0404C19.2346 9.65332 22.9747 9.87581 25.6957 10.529C27.0597 10.8564 28.1283 11.2828 28.8548 11.7651C29.5878 12.2517 29.8791 12.7277 29.9181 13.142Z" stroke="#312E81" stroke-width="1.4"/>
<path d="M29.9181 8.01947C29.9572 8.43376 29.7601 8.95588 29.131 9.57091C28.5075 10.1806 27.5374 10.7993 26.2587 11.376C23.7079 12.5263 20.0753 13.4442 15.9709 13.8313C11.8666 14.2185 8.12643 13.996 5.40548 13.3428C4.04147 13.0154 2.97284 12.589 2.24629 12.1067C1.51336 11.6201 1.22207 11.144 1.183 10.7298C1.14392 10.3155 1.34106 9.79334 1.97009 9.17831C2.59364 8.56865 3.5637 7.94994 4.84243 7.37326C7.39328 6.22289 11.0259 5.305 15.1302 4.91788C19.2346 4.53076 22.9747 4.75326 25.6957 5.40639C27.0597 5.73381 28.1283 6.16023 28.8548 6.64256C29.5878 7.12913 29.8791 7.60518 29.9181 8.01947Z" fill="#312E81" stroke="#312E81" stroke-width="1.4"/>
<path d="M41.7041 23.8V5.76798H44.1681L50.2721 18.284L56.3761 5.76798H58.8401V23.8H56.5721V9.35198L51.0561 20.664H49.5161L43.9721 9.35198V23.8H41.7041Z" fill="#312E81"/>
<path d="M67.8828 24.08C65.5121 24.08 63.7388 23.5106 62.5628 22.372C61.3868 21.2333 60.7988 19.4786 60.7988 17.108C60.7988 14.98 61.3028 13.3093 62.3108 12.096C63.3375 10.864 64.9521 10.248 67.1548 10.248C68.4615 10.248 69.5348 10.4906 70.3748 10.976C71.2335 11.4426 71.8681 12.096 72.2788 12.936C72.7081 13.7573 72.9228 14.6906 72.9228 15.736V18.228H63.0948C63.1695 19.236 63.3841 20.0293 63.7388 20.608C64.1121 21.1866 64.6628 21.6066 65.3908 21.868C66.1375 22.1106 67.1175 22.232 68.3308 22.232C69.6935 22.232 70.9441 21.9986 72.0828 21.532V23.324C71.5041 23.5666 70.8508 23.7533 70.1228 23.884C69.4135 24.0146 68.6668 24.08 67.8828 24.08ZM63.0948 16.576H70.8788V15.484C70.8788 14.4013 70.5895 13.5706 70.0108 12.992C69.4508 12.3946 68.5175 12.096 67.2108 12.096C65.6241 12.096 64.5415 12.4693 63.9628 13.216C63.3841 13.9626 63.0948 15.0826 63.0948 16.576Z" fill="#312E81"/>
<path d="M76.5427 23.8L73.0707 10.528H75.3667L77.9707 21.196L80.9387 12.068V10.528H82.7027L85.9787 21.196L88.5827 10.528H90.8787L87.4067 23.8H85.1107L82.0027 14.168L78.8387 23.8H76.5427Z" fill="#312E81"/>
<path d="M98.114 24.08C95.7434 24.08 93.97 23.5106 92.794 22.372C91.618 21.2333 91.03 19.4786 91.03 17.108C91.03 14.98 91.534 13.3093 92.542 12.096C93.5687 10.864 95.1834 10.248 97.386 10.248C98.6927 10.248 99.766 10.4906 100.606 10.976C101.465 11.4426 102.099 12.096 102.51 12.936C102.939 13.7573 103.154 14.6906 103.154 15.736V18.228H93.326C93.4007 19.236 93.6154 20.0293 93.97 20.608C94.3434 21.1866 94.894 21.6066 95.622 21.868C96.3687 22.1106 97.3487 22.232 98.562 22.232C99.9247 22.232 101.175 21.9986 102.314 21.532V23.324C101.735 23.5666 101.082 23.7533 100.354 23.884C99.6447 24.0146 98.898 24.08 98.114 24.08ZM93.326 16.576H101.11V15.484C101.11 14.4013 100.821 13.5706 100.242 12.992C99.682 12.3946 98.7487 12.096 97.442 12.096C95.8554 12.096 94.7727 12.4693 94.194 13.216C93.6154 13.9626 93.326 15.0826 93.326 16.576Z" fill="#312E81"/>
<path d="M109.099 24.08C108.259 24.08 107.484 23.9306 106.775 23.632C106.066 23.3333 105.496 22.8946 105.067 22.316C104.638 21.7186 104.423 20.972 104.423 20.076C104.423 18.8626 104.824 17.8733 105.627 17.108C106.43 16.324 107.736 15.932 109.547 15.932H114.167V15.12C114.167 14.392 114.064 13.8133 113.859 13.384C113.672 12.9546 113.308 12.6466 112.767 12.46C112.226 12.2733 111.432 12.18 110.387 12.18C109.584 12.18 108.81 12.2453 108.063 12.376C107.316 12.5066 106.616 12.684 105.963 12.908V11.004C106.56 10.78 107.26 10.6026 108.063 10.472C108.884 10.3226 109.762 10.248 110.695 10.248C112.58 10.248 113.99 10.6306 114.923 11.396C115.875 12.1613 116.351 13.4026 116.351 15.12V23.8H114.419L114.251 22.288C113.672 22.8853 112.972 23.3333 112.151 23.632C111.33 23.9306 110.312 24.08 109.099 24.08ZM109.687 22.204C110.658 22.204 111.516 22.036 112.263 21.7C113.01 21.3453 113.644 20.8693 114.167 20.272V17.696H109.603C108.558 17.696 107.811 17.892 107.363 18.284C106.915 18.676 106.691 19.2733 106.691 20.076C106.691 20.8786 106.962 21.4386 107.503 21.756C108.044 22.0546 108.772 22.204 109.687 22.204Z" fill="#312E81"/>
<path d="M121.615 24.08C120.719 24.08 120.01 23.8466 119.487 23.38C118.983 22.8946 118.731 22.0826 118.731 20.944V4.92798H121.027V20.692C121.027 21.252 121.121 21.6346 121.307 21.84C121.494 22.0453 121.783 22.148 122.175 22.148C122.605 22.148 123.025 22.092 123.435 21.98V23.8C123.137 23.912 122.838 23.9866 122.539 24.024C122.241 24.0613 121.933 24.08 121.615 24.08Z" fill="#312E81"/>
<path d="M128.82 24.08C127.513 24.08 126.524 23.7346 125.852 23.044C125.199 22.3346 124.872 21.3546 124.872 20.104V12.348H122.856V10.528H124.872V7.25198L127.168 6.55198V10.528H130.836L130.696 12.348H127.168V19.992C127.168 20.7946 127.345 21.3733 127.7 21.728C128.073 22.064 128.708 22.232 129.604 22.232C130.089 22.232 130.621 22.1386 131.2 21.952V23.688C130.509 23.9493 129.716 24.08 128.82 24.08Z" fill="#312E81"/>
<path d="M132.447 23.8V4.92798H134.743V11.956C135.359 11.452 136.078 11.0413 136.899 10.724C137.739 10.4066 138.71 10.248 139.811 10.248C141.416 10.248 142.62 10.64 143.423 11.424C144.226 12.208 144.627 13.44 144.627 15.12V23.8H142.331V15.204C142.331 14.0466 142.07 13.244 141.547 12.796C141.043 12.3293 140.203 12.096 139.027 12.096C138.28 12.096 137.506 12.264 136.703 12.6C135.919 12.9173 135.266 13.3373 134.743 13.86V23.8H132.447Z" fill="#312E81"/>
</svg>
