<svg width="180" height="100" viewBox="0 0 180 100" fill="none" xmlns="http://www.w3.org/2000/svg">
<g clip-path="url(#clip0_335_1984)">
<g clip-path="url(#clip1_335_1984)">
<path d="M52.8984 70.1014V53.0347H60.9001C62.0659 53.0347 63.0993 53.2786 64.0001 53.7662C64.9186 54.2538 65.6428 54.9202 66.1727 55.7654C66.7203 56.6106 66.9941 57.5615 66.9941 58.618C66.9941 59.7233 66.7203 60.7147 66.1727 61.5925C65.6428 62.4539 64.9186 63.1366 64.0001 63.6405C63.0993 64.1443 62.0659 64.3963 60.9001 64.3963H57.4027V70.1014H52.8984ZM57.3232 60.7635H60.2642C60.6528 60.7635 61.0061 60.6741 61.324 60.4953C61.642 60.3165 61.8981 60.0727 62.0924 59.7639C62.2867 59.4551 62.3839 59.0975 62.3839 58.6911C62.3839 58.2685 62.2867 57.9109 62.0924 57.6184C61.8981 57.3258 61.642 57.0982 61.324 56.9357C61.0061 56.7732 60.6528 56.6919 60.2642 56.6919H57.3232V60.7635Z" fill="#374151"/>
<path d="M68.335 70.1014V57.1551H72.3624L72.5478 61.373L71.753 60.5685C71.9649 59.8695 72.3094 59.2438 72.7863 58.6911C73.2809 58.1385 73.855 57.6996 74.5085 57.3746C75.1621 57.0495 75.8598 56.8869 76.6017 56.8869C76.9196 56.8869 77.2111 56.9113 77.476 56.9601C77.7586 57.0088 78.0148 57.0657 78.2444 57.1307L77.0786 61.4462C76.8843 61.3324 76.6193 61.243 76.2837 61.178C75.9658 61.0967 75.6302 61.0561 75.2769 61.0561C74.8883 61.0561 74.5262 61.1211 74.1906 61.2511C73.855 61.3649 73.5723 61.5356 73.3427 61.7631C73.1131 61.9907 72.9276 62.2589 72.7863 62.5677C72.6627 62.8765 72.6008 63.226 72.6008 63.6161V70.1014H68.335Z" fill="#374151"/>
<path d="M83.3347 70.3208C82.1512 70.3208 81.0914 70.0364 80.1552 69.4675C79.2367 68.8824 78.5036 68.0859 77.9561 67.0782C77.4085 66.0542 77.1347 64.9001 77.1347 63.6161C77.1347 62.2995 77.4085 61.1373 77.9561 60.1296C78.5036 59.1219 79.2543 58.3335 80.2082 57.7646C81.162 57.1795 82.2483 56.8869 83.4671 56.8869C84.1384 56.8869 84.7478 56.9763 85.2953 57.1551C85.8606 57.3339 86.3552 57.5859 86.7791 57.9109C87.203 58.2198 87.5651 58.5855 87.8654 59.0081C88.1657 59.4144 88.3865 59.8533 88.5278 60.3246L87.6535 60.2271V57.1551H91.8663V70.1014H87.574V66.9806L88.5278 66.9563C88.3865 67.4114 88.1569 67.8421 87.8389 68.2485C87.521 68.6548 87.1324 69.0124 86.6731 69.3212C86.2139 69.63 85.7016 69.8739 85.1364 70.0527C84.5711 70.2314 83.9706 70.3208 83.3347 70.3208ZM84.5005 67.0294C85.154 67.0294 85.7193 66.8913 86.1962 66.6149C86.6731 66.3386 87.0441 65.9485 87.309 65.4446C87.574 64.9245 87.7064 64.315 87.7064 63.6161C87.7064 62.9172 87.574 62.3158 87.309 61.8119C87.0441 61.2918 86.6731 60.8935 86.1962 60.6172C85.7193 60.3246 85.154 60.1784 84.5005 60.1784C83.8646 60.1784 83.3082 60.3246 82.8312 60.6172C82.372 60.8935 82.0099 61.2918 81.7449 61.8119C81.48 62.3158 81.3475 62.9172 81.3475 63.6161C81.3475 64.315 81.48 64.9245 81.7449 65.4446C82.0099 65.9485 82.372 66.3386 82.8312 66.6149C83.3082 66.8913 83.8646 67.0294 84.5005 67.0294Z" fill="#374151"/>
<path d="M102.615 70.1014L99.621 65.9323L98.2432 64.1525L92.6791 57.1551H97.7663L100.654 61.1292L102.165 63.0309L107.649 70.1014H102.615ZM92.5467 70.1014L98.2167 62.8359L100.495 65.3471L97.5543 70.1014H92.5467ZM101.847 64.4694L99.5945 61.9826L102.377 57.1551H107.384L101.847 64.4694Z" fill="#374151"/>
<path d="M108.602 70.1014V57.1551H112.841V70.1014H108.602ZM110.721 54.5951C109.926 54.5951 109.299 54.4245 108.84 54.0831C108.398 53.7255 108.178 53.2217 108.178 52.5715C108.178 51.9864 108.407 51.5069 108.867 51.133C109.326 50.7592 109.944 50.5723 110.721 50.5723C111.516 50.5723 112.134 50.7511 112.576 51.1086C113.017 51.45 113.238 51.9376 113.238 52.5715C113.238 53.1729 113.009 53.6605 112.549 54.0344C112.108 54.4082 111.498 54.5951 110.721 54.5951Z" fill="#374151"/>
<path d="M119.911 70.3452C118.533 70.3452 117.314 70.142 116.254 69.7357C115.212 69.3293 114.382 68.7848 113.764 68.1022L116.334 66.0542C116.882 66.558 117.5 66.9319 118.189 67.1757C118.878 67.4033 119.531 67.517 120.149 67.517C120.397 67.517 120.617 67.4926 120.812 67.4439C121.006 67.3951 121.165 67.3301 121.289 67.2488C121.43 67.1513 121.536 67.0457 121.607 66.9319C121.677 66.8019 121.713 66.6556 121.713 66.493C121.713 66.168 121.554 65.916 121.236 65.7372C121.077 65.656 120.812 65.5584 120.441 65.4446C120.07 65.3309 119.593 65.2008 119.01 65.0546C118.18 64.8595 117.456 64.632 116.837 64.3719C116.237 64.0956 115.742 63.7786 115.354 63.421C115 63.0797 114.727 62.7059 114.532 62.2995C114.338 61.8769 114.241 61.4055 114.241 60.8854C114.241 60.284 114.391 59.7395 114.691 59.2519C115.009 58.7643 115.424 58.3417 115.936 57.9841C116.466 57.6265 117.067 57.3583 117.738 57.1795C118.427 56.9845 119.134 56.8869 119.858 56.8869C120.635 56.8869 121.377 56.9682 122.083 57.1307C122.79 57.2933 123.444 57.5208 124.044 57.8134C124.662 58.106 125.21 58.4554 125.687 58.8618L123.461 61.1536C123.143 60.8773 122.781 60.6335 122.375 60.4222C121.986 60.1946 121.58 60.0158 121.156 59.8858C120.732 59.7558 120.344 59.6907 119.99 59.6907C119.725 59.6907 119.487 59.7151 119.275 59.7639C119.081 59.7964 118.913 59.8614 118.772 59.9589C118.63 60.0402 118.524 60.1459 118.454 60.2759C118.383 60.3897 118.348 60.5278 118.348 60.6904C118.348 60.8529 118.392 61.0073 118.48 61.1536C118.586 61.2999 118.727 61.4218 118.904 61.5193C119.081 61.6168 119.363 61.7306 119.752 61.8606C120.14 61.9744 120.67 62.1207 121.342 62.2995C122.172 62.5108 122.887 62.7465 123.488 63.0066C124.088 63.2666 124.565 63.5754 124.919 63.933C125.201 64.2093 125.413 64.5344 125.554 64.9083C125.696 65.2659 125.766 65.656 125.766 66.0786C125.766 66.9075 125.51 67.6471 124.998 68.2972C124.503 68.9311 123.815 69.435 122.931 69.8088C122.048 70.1664 121.041 70.3452 119.911 70.3452Z" fill="#374151"/>
<path d="M128.698 59.1492C130.091 59.1492 131.22 58.1092 131.22 56.8265C131.22 55.5437 130.091 54.5039 128.698 54.5039C127.305 54.5039 126.176 55.5437 126.176 56.8265C126.176 58.1092 127.305 59.1492 128.698 59.1492Z" fill="#111827"/>
<path d="M91.3068 46.498C97.8297 46.498 103.117 41.6282 103.117 35.621C103.117 29.6139 97.8297 24.7441 91.3068 24.7441C84.784 24.7441 79.4961 29.6139 79.4961 35.621C79.4961 41.6282 84.784 46.498 91.3068 46.498Z" fill="#111827"/>
<path d="M117.709 46.498C124.232 46.498 129.52 41.6282 129.52 35.621C129.52 29.6139 124.232 24.7441 117.709 24.7441C111.186 24.7441 105.898 29.6139 105.898 35.621C105.898 41.6282 111.186 46.498 117.709 46.498Z" fill="#374151"/>
<path d="M76.7155 24.7441H53.1055V46.4875H76.7155V24.7441Z" fill="#111827"/>
</g>
</g>
<defs>
<clipPath id="clip0_335_1984">
<rect width="180" height="100" rx="8" fill="white"/>
</clipPath>
<clipPath id="clip1_335_1984">
<rect width="81" height="56" fill="white" transform="translate(50 22)"/>
</clipPath>
</defs>
</svg>
