<svg width="256" height="256" viewBox="0 0 256 256" fill="none" xmlns="http://www.w3.org/2000/svg">
<g clip-path="url(#clip0_335_4681)">
<rect width="256" height="256" fill="white"/>
<g opacity="0.72" filter="url(#filter0_f_335_4681)">
<ellipse cx="116.826" cy="115.937" rx="116.826" ry="115.937" transform="matrix(-0.91529 0.402796 0.402796 0.91529 250.602 44.6237)" fill="#DDD1FF"/>
</g>
<g opacity="0.72" filter="url(#filter1_f_335_4681)">
<ellipse cx="72.6672" cy="72.1142" rx="72.6672" ry="72.1142" transform="matrix(-0.91529 0.402796 0.402796 0.91529 76.0232 -59.6706)" fill="#FFB4BD"/>
</g>
<path d="M208.177 149.232C208.403 151.619 207.285 154.573 203.818 158.013C200.377 161.428 195.025 164.886 187.974 168.106C173.905 174.53 153.865 179.642 131.218 181.778C108.571 183.914 87.9288 182.639 72.9073 178.959C65.378 177.115 59.4739 174.717 55.4548 172.006C51.4068 169.276 49.756 166.582 49.5309 164.196C49.3059 161.809 50.4239 158.855 53.89 155.416C57.3313 152.001 62.683 148.542 69.7346 145.322C83.8032 138.899 103.843 133.786 126.49 131.65C149.137 129.514 169.78 130.789 184.801 134.469C192.33 136.314 198.235 138.711 202.254 141.422C206.302 144.153 207.952 146.846 208.177 149.232Z" stroke="#312E81" stroke-width="7.64934"/>
<path d="M208.177 121.065C208.403 123.451 207.285 126.406 203.818 129.845C200.377 133.26 195.025 136.719 187.974 139.939C173.905 146.362 153.865 151.475 131.218 153.611C108.571 155.747 87.9288 154.471 72.9073 150.792C65.378 148.947 59.4739 146.55 55.4548 143.839C51.4068 141.108 49.756 138.415 49.5309 136.028C49.3059 133.642 50.4239 130.687 53.89 127.248C57.3313 123.833 62.683 120.374 69.7346 117.155C83.8032 110.731 103.843 105.619 126.49 103.483C149.137 101.346 169.78 102.622 184.801 106.302C192.33 108.146 198.235 110.543 202.254 113.254C206.302 115.985 207.952 118.678 208.177 121.065Z" stroke="#312E81" stroke-width="7.64934"/>
<path d="M208.177 93.0762C208.403 95.4626 207.285 98.4172 203.818 101.857C200.377 105.271 195.025 108.73 187.974 111.95C173.905 118.373 153.865 123.486 131.218 125.622C108.571 127.758 87.9288 126.483 72.9073 122.803C65.378 120.958 59.4739 118.561 55.4548 115.85C51.4068 113.119 49.756 110.426 49.5309 108.04C49.3059 105.653 50.4239 102.699 53.89 99.2593C57.3313 95.8445 62.683 92.3856 69.7346 89.1659C83.8032 82.7425 103.843 77.6299 126.49 75.4938C149.137 73.3577 169.78 74.6332 184.801 78.3129C192.33 80.1573 198.235 82.5546 202.254 85.2657C206.302 87.9964 207.952 90.6897 208.177 93.0762Z" fill="#312E81" stroke="#312E81" stroke-width="7.64934"/>
</g>
<defs>
<filter id="filter0_f_335_4681" x="-20.7569" y="-12.7304" width="422.256" height="421.054" filterUnits="userSpaceOnUse" color-interpolation-filters="sRGB">
<feFlood flood-opacity="0" result="BackgroundImageFix"/>
<feBlend mode="normal" in="SourceGraphic" in2="BackgroundImageFix" result="shape"/>
<feGaussianBlur stdDeviation="47.2081" result="effect1_foregroundBlur_335_4681"/>
</filter>
<filter id="filter1_f_335_4681" x="-153.953" y="-156.533" width="385.024" height="384.276" filterUnits="userSpaceOnUse" color-interpolation-filters="sRGB">
<feFlood flood-opacity="0" result="BackgroundImageFix"/>
<feBlend mode="normal" in="SourceGraphic" in2="BackgroundImageFix" result="shape"/>
<feGaussianBlur stdDeviation="59.9578" result="effect1_foregroundBlur_335_4681"/>
</filter>
<clipPath id="clip0_335_4681">
<rect width="256" height="256" fill="white"/>
</clipPath>
</defs>
</svg>
