<svg width="32" height="32" viewBox="0 0 32 32" fill="none" xmlns="http://www.w3.org/2000/svg">
<g clip-path="url(#clip0_335_4692)">
<rect width="32" height="32" rx="6" fill="white"/>
<g opacity="0.72" filter="url(#filter0_f_335_4692)">
<ellipse cx="16.9517" cy="16.8227" rx="16.9517" ry="16.8227" transform="matrix(-0.91529 0.402796 0.402796 0.91529 35.0312 4)" fill="#DDD1FF"/>
</g>
<g opacity="0.72" filter="url(#filter1_f_335_4692)">
<ellipse cx="10.5442" cy="10.4639" rx="10.5442" ry="10.4639" transform="matrix(-0.91529 0.402796 0.402796 0.91529 9.69971 -11.1334)" fill="#FFB4BD"/>
</g>
<path d="M27.1251 18.4606C27.154 18.767 27.0083 19.1531 26.5431 19.6079C26.0819 20.0588 25.3646 20.5163 24.4189 20.9428C22.5325 21.7935 19.8461 22.4723 16.8109 22.7586C13.7756 23.0449 11.0097 22.8803 8.99747 22.3973C7.98876 22.1552 7.19848 21.8398 6.66119 21.4832C6.11916 21.1233 5.90375 20.7713 5.87485 20.4649C5.84595 20.1585 5.99175 19.7724 6.45693 19.3176C6.91806 18.8667 7.63543 18.4092 8.58109 17.9827C10.4675 17.132 13.1539 16.4532 16.1891 16.1669C19.2244 15.8806 21.9903 16.0451 24.0025 16.5281C25.0112 16.7703 25.8015 17.0856 26.3388 17.4423C26.8808 17.8021 27.0963 18.1542 27.1251 18.4606Z" stroke="#312E81" stroke-width="1.03533"/>
<path d="M27.1251 14.648C27.154 14.9544 27.0083 15.3405 26.5431 15.7953C26.0819 16.2462 25.3646 16.7038 24.4189 17.1302C22.5325 17.9809 19.8461 18.6597 16.8109 18.946C13.7756 19.2323 11.0097 19.0678 8.99747 18.5848C7.98876 18.3426 7.19848 18.0273 6.66119 17.6706C6.11916 17.3108 5.90375 16.9587 5.87485 16.6523C5.84595 16.346 5.99175 15.9598 6.45693 15.505C6.91806 15.0541 7.63543 14.5966 8.58109 14.1701C10.4675 13.3194 13.1539 12.6406 16.1891 12.3543C19.2244 12.068 21.9903 12.2326 24.0025 12.7156C25.0112 12.9577 25.8015 13.2731 26.3388 13.6298C26.8808 13.9896 27.0963 14.3416 27.1251 14.648Z" stroke="#312E81" stroke-width="1.03533"/>
<path d="M27.1251 10.8599C27.154 11.1663 27.0083 11.5524 26.5431 12.0073C26.0819 12.4581 25.3646 12.9157 24.4189 13.3421C22.5325 14.1929 19.8461 14.8717 16.8109 15.1579C13.7756 15.4442 11.0097 15.2797 8.99747 14.7967C7.98876 14.5545 7.19848 14.2392 6.66119 13.8825C6.11916 13.5227 5.90375 13.1706 5.87485 12.8642C5.84595 12.5579 5.99175 12.1717 6.45693 11.7169C6.91806 11.2661 7.63543 10.8085 8.58109 10.382C10.4675 9.53132 13.1539 8.85252 16.1891 8.56623C19.2244 8.27995 21.9903 8.44449 24.0025 8.9275C25.0112 9.16963 25.8015 9.48498 26.3388 9.84167C26.8808 10.2015 27.0963 10.5536 27.1251 10.8599Z" fill="#312E81" stroke="#312E81" stroke-width="1.03533"/>
</g>
<defs>
<filter id="filter0_f_335_4692" x="-4.34355" y="-4.32219" width="61.2701" height="61.0959" filterUnits="userSpaceOnUse" color-interpolation-filters="sRGB">
<feFlood flood-opacity="0" result="BackgroundImageFix"/>
<feBlend mode="normal" in="SourceGraphic" in2="BackgroundImageFix" result="shape"/>
<feGaussianBlur stdDeviation="6.85" result="effect1_foregroundBlur_335_4692"/>
</filter>
<filter id="filter1_f_335_4692" x="-23.6705" y="-25.1883" width="55.8679" height="55.7592" filterUnits="userSpaceOnUse" color-interpolation-filters="sRGB">
<feFlood flood-opacity="0" result="BackgroundImageFix"/>
<feBlend mode="normal" in="SourceGraphic" in2="BackgroundImageFix" result="shape"/>
<feGaussianBlur stdDeviation="8.7" result="effect1_foregroundBlur_335_4692"/>
</filter>
<clipPath id="clip0_335_4692">
<rect width="32" height="32" rx="6" fill="white"/>
</clipPath>
</defs>
</svg>
