<svg width="800" height="611" viewBox="0 0 800 611" fill="none" xmlns="http://www.w3.org/2000/svg">
<path d="M775.08 278.894C778.218 298.589 770.989 319.145 754.885 339.529C738.779 359.914 713.891 379.996 682.024 398.64C618.3 435.922 526.953 467.289 423.095 483.837C319.237 500.385 222.665 498.959 150.51 483.326C114.428 475.508 84.53 464.155 62.8869 449.785C41.2454 435.415 27.9863 418.123 24.8482 398.428C21.7101 378.732 28.939 358.176 45.0433 337.793C61.1488 317.408 86.0377 297.325 117.904 278.682C181.629 241.399 272.975 210.032 376.833 193.485C480.692 176.937 577.263 178.363 649.418 193.996C685.501 201.813 715.398 213.166 737.041 227.537C758.683 241.906 771.942 259.198 775.08 278.894Z" stroke="white" stroke-width="3"/>
<path d="M775.08 344.572C778.218 364.268 770.989 384.824 754.885 405.208C738.779 425.593 713.891 445.675 682.024 464.319C618.3 501.601 526.953 532.968 423.095 549.516C319.237 566.063 222.665 564.637 150.51 549.005C114.428 541.187 84.53 529.834 62.8869 515.463C41.2454 501.094 27.9863 483.802 24.8482 464.107C21.7101 444.411 28.939 423.855 45.0433 403.471C61.1488 383.086 86.0377 363.004 117.904 344.36C181.629 307.078 272.975 275.711 376.833 259.163C480.692 242.616 577.263 244.041 649.418 259.674C685.501 267.492 715.398 278.845 737.041 293.216C758.683 307.585 771.942 324.877 775.08 344.572Z" stroke="white" stroke-width="3"/>
<path d="M693.423 0L697.401 15.7407L712.187 9.03624L702.361 21.9601L716.822 29.3405L700.591 29.7156L703.837 45.6233L693.423 33.1672L683.01 45.6233L686.256 29.7156L670.025 29.3405L684.486 21.9601L674.659 9.03624L689.446 15.7407L693.423 0Z" fill="white"/>
</svg>
